<svg width="245" height="77" viewBox="0 0 245 77" fill="none" xmlns="http://www.w3.org/2000/svg">
<path d="M5.59323 75.9129L10.7772 39.988L238.762 7.8561L233.578 43.781L5.59323 75.9129Z" stroke="url(#paint0_linear_3373_1156)"/>
<path d="M16.8052 30.62L234.062 9.14894e-05L229.26 36.8811L12.0032 67.501L16.8052 30.62Z" fill="url(#paint1_linear_3373_1156)"/>
<path d="M41.9145 54.297L41.4409 54.3414L40.7979 54.4359L40.6211 54.4367L39.3102 54.6295L39.0803 54.6128L38.9734 54.4011L39.0148 54.1676L39.0315 53.9377L39.0264 53.5594L39.0177 53.1564L39.0621 52.7708L39.0286 52.3714L39.0737 52.1627L39.0409 51.9401L39.0649 51.7596L39.0395 51.5865L39.0598 51.3814L39.0591 51.2046L39.0329 50.8547L39.0351 50.5258L39.1049 50.3134L39.0962 49.9104L39.0707 49.7373L39.0911 49.5321L39.0932 49.2033L39.075 49.0796L39.1303 48.7683L39.0838 48.6235L39.1107 48.2911L39.1594 48.107L39.1587 47.9302L39.1783 47.5483L39.2023 47.3679L39.2248 46.8339L39.1703 46.4629L39.2183 46.1021L39.2132 45.7238L39.2619 45.5398L39.2575 45.3383L39.2568 45.1615L39.2313 44.9883L39.3084 44.8254L39.3477 44.0615L39.3928 43.8528L39.4168 43.6723L39.3702 43.5276L39.3935 43.1704L39.4378 42.7848L39.3607 42.0886L39.4094 41.9046L39.3578 41.3815L39.4349 41.2186L39.4553 41.0134L39.4545 40.8367L39.408 40.6919L39.4072 40.5151L39.4589 40.179L39.4574 39.8255L39.5098 39.6662L39.4843 39.493L39.533 39.309L39.4865 39.1642L39.5105 38.9838L39.4879 38.6586L39.5156 38.5029L39.5185 38.3509L39.4959 38.0257L39.4988 37.8737L39.4239 37.7078L39.4544 37.4001L39.5068 37.2408L39.5097 37.0887L39.6857 36.9112L40.1062 36.8494L40.251 36.8028L40.4277 36.8021L40.7209 36.7337L40.8941 36.7082L41.0956 36.7039L41.3429 36.6675L41.8834 36.5627L43.7348 36.2651L44.3073 36.2062L44.5088 36.2018L45.2225 36.0716L45.7666 35.9915L45.9856 35.934L46.2366 35.9224L46.4628 35.9144L46.6119 36.0693L46.5778 36.3523L46.5996 36.5007L46.6411 37.1263L46.6629 37.2747L46.6142 37.4588L46.6149 37.6356L46.612 37.7876L46.5924 38.1695L46.6215 38.3674L46.5735 38.7282L46.5706 38.8803L46.5437 39.2127L46.3 39.2738L45.2611 39.4266L44.968 39.495L43.3603 39.7315L42.7703 39.8436L42.7398 40.1513L42.7405 40.3281L42.7914 40.6743L42.739 40.8337L42.7681 41.0315L42.7631 41.5124L42.7645 41.8659L42.7413 42.2231L42.7173 42.4035L42.7711 42.5978L42.7333 42.856L42.7493 43.3085L43.1945 43.243L44.0638 43.1404L44.5265 43.0218L45.1696 42.9272L45.3747 42.9476L45.5522 43.1236L45.5464 43.4277L45.5755 43.6256L45.5661 43.9049L45.5428 44.2621L45.5188 44.4425L45.4992 44.8245L45.5247 44.9976L45.4796 45.2064L45.481 45.5599L45.465 45.9666L45.4665 46.3201L45.4243 46.3769L45.177 46.4133L44.8096 46.4926L44.587 46.5253L43.9723 46.641L43.5482 46.6781L43.2761 46.7181L42.9582 46.7902L42.7356 46.8229L42.6767 47.1095L42.6498 47.442L42.6527 48.1491L42.6149 48.4073L42.5982 48.6372L42.6098 48.8882L42.5858 49.0686L42.5771 49.5247L42.5727 50.1824L42.6019 50.3802L42.7153 50.4646L43.0689 50.4632L44.5282 50.2485L44.8781 50.2223L45.4259 50.167L46.1148 50.0404L46.2988 50.0891L46.3032 50.2906L46.293 50.3932L46.2836 50.6726L46.288 50.8741L46.2691 51.4328L46.3164 51.7543L46.2924 51.9347L46.2647 52.0904L46.2655 52.2672L46.2458 52.6491L46.2829 53.0732L46.2662 53.3031L46.232 53.5861L43.8823 53.9317L43.4902 54.0147L43.165 54.0372L43.0203 54.0838L42.5009 54.1602L42.1087 54.2431L41.9145 54.297ZM63.664 53.3973L62.943 53.4781L62.6921 53.4897L62.5437 53.5115L62.3669 53.5123L62.2068 53.2831L62.1777 53.0853L62.2424 51.6354L62.2657 51.2782L61.1243 51.4208L60.6085 51.522L58.3679 51.7505L58.0005 51.8298L57.8311 51.88L57.6295 51.8844L57.3895 51.9702L56.9901 52.0037L56.8453 52.0502L56.6722 52.0757L56.4285 52.1368L56.2554 52.1623L56.0539 52.1667L54.7641 52.3311L54.0577 52.5108L52.5096 52.6374L52.1423 52.7167L51.9728 52.7669L51.2235 52.8266L50.9798 52.8877L50.7535 52.8957L50.4073 52.9467L50.2378 52.9969L48.9269 53.1897L48.7574 53.2399L48.4744 53.2057L48.3391 52.9729L48.342 52.8209L48.3019 52.5488L48.3405 52.4673L48.3252 52.1916L48.2786 52.0469L48.3383 51.937L48.3303 51.7108L48.3616 51.5798L48.3601 51.2263L48.4263 50.9891L48.4001 50.6392L48.3746 50.4661L48.3775 50.314L48.4066 49.6528L48.4161 49.3734L48.4437 49.2177L48.4495 48.9137L48.4488 48.7369L48.4546 48.4328L48.4291 48.2597L48.4313 47.9308L48.4618 47.6231L48.4887 47.2907L48.4953 47.1634L48.5185 46.8062L48.56 46.5726L48.5273 46.35L48.5265 46.1733L48.5222 45.9718L48.4967 45.7986L48.4989 45.4698L48.5367 45.2116L48.5454 44.7554L48.5759 44.4477L48.5752 44.2709L48.6479 43.9065L48.6188 43.7086L48.6479 43.0473L48.6537 42.7432L48.7017 42.3824L48.6726 42.1845L48.7206 41.8237L48.6915 41.6258L48.6901 41.2723L48.6966 41.145L48.6457 40.7987L48.733 40.5332L48.6682 40.2648L48.6878 39.8828L48.6835 39.6813L48.7351 39.3452L48.706 39.1474L48.7293 38.7902L48.7278 38.4366L48.73 38.1078L48.7045 37.9347L48.7387 37.6517L48.7416 37.4996L48.7721 37.1919L48.7503 37.0435L48.7772 36.7111L48.7757 36.3575L48.8027 36.0251L48.7983 35.8235L48.8397 35.59L49.1009 35.4758L49.744 35.3812L49.9208 35.3805L50.638 35.275L50.9916 35.2735L51.1895 35.2444L51.359 35.1942L51.6347 35.1789L51.8114 35.1782L52.0057 35.1243L52.2108 35.1447L52.4516 35.2356L52.4844 35.4582L52.5113 35.9849L52.4706 36.3952L52.4473 36.7524L52.448 36.9292L52.4524 37.1307L52.4328 37.5126L52.4335 37.6894L52.4131 37.8945L52.4139 38.0713L52.3622 38.4074L52.4088 38.5522L52.4001 39.0083L52.3659 39.2913L52.3492 39.5212L52.3077 39.7547L52.291 39.9846L52.3099 40.285L52.3114 40.6386L52.2837 40.7942L52.2597 40.9747L52.3099 41.1442L52.2168 41.7138L52.222 42.092L52.2438 42.2405L52.2205 42.5976L52.2176 42.7497L52.2191 43.1032L52.27 43.4495L52.222 43.8103L52.2475 43.9835L52.2489 44.337L52.1791 44.5494L52.2264 44.871L52.2206 45.1751L52.1937 45.5075L52.121 45.872L52.1231 46.4023L52.1741 46.7486L52.1253 46.9326L52.1268 47.2862L52.1239 47.4382L52.1741 47.6077L52.1188 47.9191L52.1159 48.0711L52.089 48.4036L52.0898 48.5804L52.0381 48.9164L52.0883 49.0859L52.0927 49.2875L52.1072 49.3864L52.7219 49.2707L53.1002 49.2656L53.7149 49.1499L54.4111 49.0728L54.4766 48.6588L54.4759 48.4821L54.4249 48.1358L54.4773 47.9765L54.4482 47.7786L54.478 47.2941L54.4765 46.9406L54.4991 46.4066L54.4947 46.2051L54.4758 45.9046L54.5201 45.5191L54.4954 44.6636L54.5034 44.0307L54.5223 43.472L54.5055 42.8427L54.5084 42.6907L54.5338 42.0047L54.568 41.7217L54.6197 41.3856L54.5898 41.011L54.5884 40.6574L54.6509 40.3955L54.6429 40.1693L54.6065 39.9219L54.6553 39.7379L54.664 39.2818L54.6683 38.6241L54.6392 38.4262L54.645 38.1222L54.6959 37.6093L54.6617 37.0331L54.6937 36.2198L54.7395 35.3287L54.7177 35.1803L54.7315 35.1024L54.7024 34.9046L54.7402 34.6463L54.8813 34.575L55.1323 34.5634L55.3266 34.5095L55.7856 34.3662L55.9587 34.3407L56.2381 34.3502L56.4359 34.3211L56.6127 34.3203L56.8601 34.284L57.7716 34.1246L57.9694 34.0955L58.1993 34.1122L58.3135 34.3734L58.2263 34.6389L58.2095 34.8688L58.2146 35.2471L58.2234 35.6501L58.179 36.0357L58.2125 36.4351L58.1674 36.6438L58.1754 36.8701L58.1769 37.2236L58.1812 37.4251L58.1572 37.6056L58.1834 37.9555L58.1813 38.2843L58.1362 38.4931L58.1158 38.6982L58.1704 39.0692L58.15 39.2744L58.1478 39.6032L58.1413 39.7305L58.1108 40.0382L58.1573 40.183L58.1304 40.5154L58.0817 40.6995L58.0824 40.8763L58.0628 41.2582L58.0162 41.9726L58.0708 42.3436L58.0228 42.7044L58.0279 43.0827L57.9792 43.2667L57.9836 43.4682L58.0098 43.8182L57.9326 43.9811L57.8934 44.745L57.8483 44.9537L57.8243 45.1342L57.8709 45.2789L57.8476 45.6361L57.8032 46.0217L57.8804 46.7179L57.8316 46.9019L57.8833 47.425L57.8062 47.5879L57.7858 47.7931L57.7866 47.9698L57.8338 48.2914L57.8098 48.4718L58.7003 48.3408L58.9265 48.3328L59.566 48.2135L60.089 48.1618L60.0948 47.8577L60.1043 47.5784L60.1072 47.4263L60.1377 47.1186L60.137 46.9418L60.1181 46.6414L60.1173 46.4646L60.1195 46.1358L60.15 45.8281L60.1769 45.4956L60.1835 45.3683L60.2068 45.0111L60.2482 44.7776L60.2155 44.555L60.2147 44.3782L60.2104 44.1767L60.1849 44.0036L60.1871 43.6748L60.2002 43.4202L60.2307 43.1124L60.2394 42.6563L60.2634 42.4759L60.3362 42.1114L60.307 41.9136L60.3114 41.2559L60.3419 40.9482L60.3899 40.5874L60.3608 40.3895L60.4088 40.0287L60.3797 39.8308L60.3783 39.4773L60.3848 39.35L60.3339 39.0037L60.4212 38.7382L60.3564 38.4697L60.376 38.0878L60.3717 37.8863L60.4233 37.5502L60.3942 37.3523L60.4175 36.9951L60.416 36.6416L60.4182 36.3128L60.368 36.1433L60.4269 35.8566L60.4385 35.2485L60.4654 34.916L60.4639 34.5625L60.4909 34.23L60.4865 34.0285L60.5279 33.795L60.7891 33.6808L61.4322 33.5862L61.609 33.5854L62.3262 33.4799L62.6798 33.4785L62.8777 33.4494L63.0472 33.3992L63.3229 33.3839L63.8175 33.3111L64.0474 33.3278L64.0867 33.4231L64.1151 33.4442L64.1726 33.6632L64.1748 34.1935L64.1588 34.6002L64.1355 34.9574L64.1362 35.1342L64.1406 35.3357L64.121 35.7176L64.1217 35.8944L64.1013 36.0995L64.1021 36.2763L64.0504 36.6124L64.097 36.7571L64.0665 37.0649L64.0883 37.2133L64.0541 37.4962L64.0374 37.7261L63.9959 37.9596L63.9996 37.9844L63.993 38.1117L64.0185 38.2848L63.9981 38.49L63.9959 38.8188L64.0141 38.9425L63.9589 39.2538L64.0054 39.3986L63.9785 39.731L63.9298 39.9151L63.9305 40.0919L63.9029 40.2475L63.932 40.4454L63.9087 40.8026L63.9058 40.9546L63.9073 41.3082L63.9582 41.6545L63.9102 42.0153L63.9357 42.1884L63.9371 42.542L63.8673 42.7544L63.9146 43.0759L63.9088 43.38L63.8819 43.7125L63.8092 44.0769L63.8114 44.6073L63.8623 44.9535L63.8136 45.1376L63.815 45.4912L63.8121 45.6432L63.8623 45.8127L63.7823 46.1277L63.8041 46.2761L63.7772 46.6085L63.778 46.7853L63.7263 47.1214L63.7765 47.2909L63.7809 47.4924L63.7569 47.6728L64.4494 47.571L64.9478 47.5229L65.1391 47.6211L65.1122 47.9536L65.1056 48.0809L65.1275 48.2293L65.0751 48.3886L65.1217 48.5334L65.094 48.6891L65.0817 49.1205L65.0998 49.2441L65.0693 49.5518L65.0875 49.6755L65.0504 50.1105L65.054 50.1353L65.0555 50.4888L65.0533 50.8176L65.0119 51.0512L65.0199 51.2774L65.0104 51.5568L64.9545 52.5505L64.9341 52.7556L64.9385 52.9571L64.8861 53.1165L64.7239 53.2161L64.3529 53.2707L63.9855 53.35L63.664 53.3973ZM68.8169 31.2112L68.3892 31.2236L67.8945 31.2964L67.6188 31.3117L67.5162 31.3015L67.4587 31.0825L67.3787 30.5384L67.3321 30.3936L67.3489 30.1637L67.4325 29.8735L67.4296 29.1664L67.375 28.7953L67.4558 28.6571L67.6253 28.6069L67.7417 28.5393L68.0705 28.5414L69.7524 28.294L69.9437 28.3922L70.0608 28.5014L70.1292 28.7945L70.0557 28.9822L70.1307 29.1481L70.1343 29.1728L70.1285 29.4769L70.0558 29.8414L70.1489 30.1309L70.1038 30.3397L70.1576 30.5339L70.018 30.9588L69.7568 31.073L68.8169 31.2112ZM72.898 30.6109L72.5692 30.6088L71.9509 30.6997L71.7988 30.6968L71.5726 30.7048L71.5398 30.4822L71.4503 30.2174L71.4394 30.1432L71.4598 29.9381L71.3885 29.7969L71.5289 29.5489L71.4889 29.2768L71.4612 28.5733L71.5303 28.1841L71.5121 28.0605L71.6321 28.0175L71.8227 27.939L72.201 27.9339L73.8335 27.6938L73.9753 27.7992L74.2408 27.8865L74.3092 28.1797L74.1863 28.3747L74.2118 28.5478L74.1659 28.5798L74.1601 28.8839L74.1616 29.2374L74.23 29.5306L74.2882 29.9263L74.1864 30.0929L74.0743 30.3621L73.7637 30.4836L72.898 30.6109ZM69.716 50.2076L69.2424 50.252L68.5993 50.3466L68.4225 50.3473L67.1116 50.5402L66.8817 50.5234L66.7748 50.3117L66.8163 50.0782L66.833 49.8483L66.8279 49.4701L66.8191 49.067L66.8635 48.6815L66.83 48.2821L66.8751 48.0733L66.8424 47.8507L66.8664 47.6703L66.8409 47.4972L66.8613 47.292L66.8605 47.1152L66.8343 46.7653L66.8365 46.4365L66.9063 46.2241L66.8976 45.8211L66.8721 45.6479L66.8925 45.4428L66.8947 45.114L66.8765 44.9903L66.9318 44.6789L66.8852 44.5342L66.9121 44.2017L66.9608 44.0177L66.9601 43.8409L66.9797 43.459L67.0037 43.2786L67.0263 42.7446L66.9717 42.3736L67.0197 42.0128L67.0146 41.6345L67.0633 41.4504L67.059 41.2489L67.0582 41.0721L67.0328 40.899L67.1099 40.736L67.1491 39.9722L67.1942 39.7634L67.2182 39.583L67.1717 39.4382L67.1949 39.0811L67.2393 38.6955L67.1622 37.9993L67.2109 37.8153L67.1592 37.2922L67.2363 37.1292L67.2567 36.9241L67.256 36.7473L67.2094 36.6026L67.2087 36.4258L67.2603 36.0897L67.2588 35.7361L67.3112 35.5768L67.2857 35.4037L67.3345 35.2196L67.2879 35.0749L67.3119 34.8945L67.2894 34.5693L67.317 34.4136L67.3199 34.2616L67.2973 33.9364L67.3002 33.7843L67.2253 33.6185L67.2559 33.3108L67.3082 33.1514L67.3111 32.9994L67.4872 32.8219L67.9076 32.76L68.0524 32.7135L68.2292 32.7127L68.5224 32.6444L68.6955 32.6189L68.897 32.6145L69.1443 32.5781L69.6848 32.4734L71.5363 32.1758L72.1088 32.1168L72.3103 32.1125L73.0239 31.9822L73.5681 31.9022L73.787 31.8447L74.038 31.8331L74.2643 31.825L74.4134 31.98L74.3792 32.263L74.401 32.4114L74.4425 33.037L74.4643 33.1854L74.4156 33.3695L74.4163 33.5462L74.4134 33.6983L74.3938 34.0802L74.4229 34.2781L74.3749 34.6389L74.372 34.7909L74.3451 35.1234L74.1014 35.1845L73.0626 35.3373L72.7694 35.4057L71.1617 35.6422L70.5717 35.7542L70.5412 36.0619L70.5419 36.2387L70.5929 36.585L70.5405 36.7443L70.5696 36.9422L70.5645 37.423L70.566 37.7766L70.5427 38.1338L70.5187 38.3142L70.5726 38.5084L70.5347 38.7667L70.5507 39.2192L70.996 39.1537L71.8653 39.0511L72.3279 38.9325L72.971 38.8379L73.1762 38.8583L73.3537 39.0343L73.3479 39.3384L73.377 39.5363L73.3675 39.8156L73.3443 40.1728L73.3203 40.3532L73.3006 40.7351L73.3261 40.9083L73.281 41.117L73.2825 41.4706L73.2665 41.8773L73.2679 42.2308L73.2258 42.2875L72.9784 42.3239L72.611 42.4032L72.3884 42.436L71.7737 42.5517L71.3496 42.5888L71.0775 42.6288L70.7596 42.7008L70.537 42.7336L70.4781 43.0202L70.4512 43.3527L70.4541 44.0598L70.4163 44.318L70.3996 44.5479L70.4113 44.7989L70.3872 44.9793L70.3785 45.4354L70.3742 46.093L70.4033 46.2909L70.5168 46.3753L70.8703 46.3738L72.3296 46.1592L72.6795 46.133L73.2273 46.0777L73.9162 45.9511L74.1003 45.9998L74.1047 46.2013L74.0945 46.3039L74.085 46.5832L74.0894 46.7847L74.0705 47.3434L74.1178 47.665L74.0938 47.8454L74.0662 48.0011L74.0669 48.1778L74.0473 48.5598L74.0844 48.9839L74.0677 49.2138L74.0335 49.4968L71.6838 49.8424L71.2916 49.9253L70.9665 49.9479L70.8217 49.9944L70.3023 50.0708L69.9102 50.1538L69.716 50.2076ZM89.348 47.3452L89.1429 47.3248L88.4751 47.4231L88.1994 47.4383L88.0262 47.4638L87.8495 47.4645L87.6683 47.2638L87.6639 47.0623L87.6559 46.836L87.6727 46.6061L87.7461 46.4184L87.6952 46.0722L87.7177 45.5382L87.717 45.3614L87.6915 45.1883L87.6908 45.0115L87.6682 44.6863L87.6995 44.5554L87.6733 44.2055L87.6929 43.8236L87.6733 43.3463L87.7125 42.5825L87.7715 42.2959L87.7845 42.0413L87.7409 41.7445L87.7642 41.3873L87.7882 41.2069L87.7867 40.8533L87.7612 40.6802L87.767 40.3761L87.5481 40.4336L87.3749 40.459L87.145 40.4423L86.3645 40.6329L85.9826 40.6133L85.5584 40.6504L85.5519 40.7777L85.5563 40.9792L85.5083 41.34L85.5061 41.6689L85.4326 41.8566L85.4945 42.277L85.4705 42.4574L85.4305 43.0445L85.3621 43.6105L85.4087 43.7553L85.3287 44.0703L85.3221 44.1976L85.2705 44.5337L85.2756 44.9119L85.2291 45.6263L85.2334 45.8278L85.2102 46.185L85.2356 46.3581L85.2371 46.7117L85.2167 46.9168L85.2175 47.0936L85.2226 47.4719L85.1353 47.7374L84.952 47.8655L84.733 47.9229L84.4398 47.9913L84.0761 48.0954L83.8782 48.1245L83.6942 48.0758L83.5247 48.126L83.3588 48.2009L83.0547 48.1951L82.2632 48.3115L81.7613 48.3348L81.6223 48.0773L81.5932 47.8794L81.6594 47.6422L81.7358 47.3025L81.7241 47.0515L81.7409 46.8217L81.7154 46.6485L81.743 46.4928L81.6681 46.327L81.7765 46.0331L81.8005 45.8527L81.7467 45.6584L81.7947 45.2976L81.719 44.955L81.7925 44.7673L81.8587 44.5301L81.8579 44.3533L81.8288 44.1555L81.8521 43.7983L81.8724 43.5931L81.8688 42.7093L81.8964 42.5536L81.8993 42.4015L81.9197 42.1964L81.8695 42.0269L81.9175 41.6661L81.8949 41.3409L81.9327 41.0826L81.9386 40.7786L81.9131 40.6054L81.908 40.2271L81.9567 40.0431L82.0018 39.8343L81.9727 39.6364L82.0207 39.2756L82.0389 38.5401L82.0418 38.3881L82.0403 38.0345L82.0141 37.6846L82.1116 37.3165L82.1109 37.1397L82.0847 36.7898L82.1072 36.2559L82.1094 35.9271L82.1297 35.7219L82.1275 35.1916L82.1341 35.0643L82.0831 34.718L82.153 34.5056L82.1486 34.3041L82.1515 34.152L82.1784 33.8196L82.102 33.3002L82.2278 32.9532L82.1522 32.6105L82.1762 32.4301L82.1754 32.2533L82.2242 32.0693L82.1703 31.875L82.1943 31.6946L82.2212 31.3622L82.2023 31.0617L82.187 30.786L82.3915 30.6296L83.0098 30.5387L84.0202 30.3648L84.3702 30.3386L84.9143 30.2585L85.1507 30.1479L85.4548 30.1537L85.7094 30.1668L85.7916 30.3822L85.8135 30.5306L85.8637 30.7001L85.8331 31.0078L85.8302 31.1598L85.8564 31.5097L85.815 31.7433L85.823 31.9695L85.7932 32.454L85.7946 32.8075L85.8135 33.108L85.7648 33.292L85.823 33.6878L85.799 33.8682L85.7787 34.0733L85.8012 34.3985L85.7699 34.5295L85.7889 34.8299L85.8107 34.9783L85.7794 35.1093L85.7591 35.3144L85.7598 35.4912L85.7074 35.6505L85.7576 35.82L85.7307 36.1525L85.7067 36.3329L85.7533 36.4776L85.7329 36.6828L85.73 36.8348L85.7096 37.04L85.8864 37.0392L86.0843 37.0101L86.8052 36.9294L86.9994 36.8755L87.2999 36.8566L87.4941 36.8028L88.0172 36.7511L88.0237 36.6238L88.0332 36.3444L88.0994 36.1073L88.0739 35.9341L88.0732 35.7574L88.1423 35.3682L88.071 35.227L88.1473 34.8873L88.1502 34.7353L88.1495 34.5585L88.1451 34.357L88.1444 34.1802L88.172 34.0245L88.1466 33.8514L88.1735 33.5189L88.1509 33.1938L88.2171 32.9566L88.1734 32.6598L88.1196 32.4656L88.1189 32.2888L88.1669 31.928L88.1378 31.7301L88.1647 31.3976L88.1923 31.242L88.1945 30.9131L88.1974 30.7611L88.2636 30.5239L88.2876 30.3435L88.2374 30.174L88.2403 30.022L88.4054 29.7703L88.5502 29.7237L88.7692 29.6662L89.6596 29.5353L90.1579 29.4872L90.8504 29.3854L91.2535 29.3766L91.4375 29.4254L91.6434 29.6225L91.6405 29.7745L91.6907 29.944L91.6136 30.107L91.6529 30.2023L91.65 30.3543L91.6754 30.5275L91.6201 30.8388L91.6463 31.1887L91.6754 31.3866L91.6762 31.5634L91.6522 31.7438L91.6318 31.9489L91.6544 32.2741L91.6798 32.4473L91.6777 32.7761L91.6784 32.9529L91.6515 33.2853L91.6522 33.4621L91.6282 33.6425L91.6326 33.844L91.6304 34.1728L91.6275 34.3249L91.5475 34.6399L91.5446 34.7919L91.5424 35.1207L91.5512 35.5237L91.581 35.8984L91.5083 36.2628L91.5381 36.6375L91.5352 36.7895L91.5119 37.1467L91.5127 37.3235L91.4356 37.4865L91.4647 37.6843L91.5396 37.8502L91.4872 38.0095L91.488 38.1863L91.5353 38.5078L91.536 38.6846L91.4596 39.0243L91.4604 39.2011L91.4269 39.6609L91.4487 39.8093L91.4393 40.0886L91.416 40.4458L91.392 40.6262L91.4386 40.771L91.3666 41.3122L91.4131 41.457L91.3891 41.6374L91.3615 41.7931L91.3622 41.9699L91.339 42.327L91.3681 42.5249L91.3688 42.7017L91.3455 43.0589L91.3114 43.3419L91.2837 43.4975L91.3099 43.8475L91.3434 44.2468L91.3201 44.604L91.3209 44.7808L91.3187 45.1096L91.2947 45.29L91.31 45.5657L91.3042 45.8698L91.2482 46.0044L91.2525 46.2059L91.2285 46.3863L91.2576 46.5842L91.2336 46.7646L91.1565 46.9276L90.8706 47.0454L90.4996 47.1L90.3549 47.1466L90.037 47.2186L89.5423 47.2914L89.348 47.3452ZM97.0102 46.1929L96.5366 46.2373L95.8935 46.3319L95.7167 46.3326L94.4058 46.5254L94.176 46.5087L94.069 46.297L94.1105 46.0635L94.1272 45.8336L94.1221 45.4553L94.1133 45.0523L94.1577 44.6668L94.1242 44.2674L94.1693 44.0586L94.1366 43.836L94.1606 43.6556L94.1351 43.4824L94.1555 43.2773L94.1547 43.1005L94.1285 42.7506L94.1307 42.4218L94.2005 42.2094L94.1918 41.8063L94.1663 41.6332L94.1867 41.4281L94.1889 41.0992L94.1707 40.9756L94.226 40.6642L94.1794 40.5194L94.2063 40.187L94.255 40.0029L94.2543 39.8262L94.2739 39.4442L94.2979 39.2638L94.3205 38.7299L94.2659 38.3589L94.3139 37.998L94.3088 37.6197L94.3575 37.4357L94.3532 37.2342L94.3524 37.0574L94.327 36.8843L94.4041 36.7213L94.4433 35.9575L94.4884 35.7487L94.5124 35.5683L94.4659 35.4235L94.4891 35.0663L94.5335 34.6808L94.4564 33.9846L94.5051 33.8005L94.4534 33.2775L94.5305 33.1145L94.5509 32.9094L94.5502 32.7326L94.5036 32.5878L94.5029 32.4111L94.5545 32.075L94.553 31.7214L94.6054 31.5621L94.5799 31.389L94.6287 31.2049L94.5821 31.0601L94.6061 30.8797L94.5836 30.5546L94.6112 30.3989L94.6141 30.2468L94.5915 29.9217L94.5944 29.7696L94.5195 29.6038L94.5501 29.296L94.6024 29.1367L94.6053 28.9847L94.7814 28.8072L95.2019 28.7453L95.3466 28.6988L95.5234 28.698L95.8166 28.6296L95.9897 28.6042L96.1912 28.5998L96.4385 28.5634L96.9791 28.4586L98.8305 28.161L99.403 28.1021L99.6045 28.0977L100.318 27.9675L100.862 27.8874L101.081 27.83L101.332 27.8183L101.558 27.8103L101.708 27.9653L101.673 28.2482L101.695 28.3967L101.737 29.0223L101.759 29.1707L101.71 29.3547L101.711 29.5315L101.708 29.6835L101.688 30.0655L101.717 30.2633L101.669 30.6242L101.666 30.7762L101.639 31.1087L101.396 31.1698L100.357 31.3226L100.064 31.391L98.4559 31.6274L97.8659 31.7395L97.8354 32.0472L97.8361 32.224L97.8871 32.5703L97.8347 32.7296L97.8638 32.9275L97.8587 33.4083L97.8602 33.7619L97.8369 34.1191L97.8129 34.2995L97.8668 34.4937L97.8289 34.752L97.845 35.2044L98.2902 35.139L99.1595 35.0364L99.6222 34.9178L100.265 34.8232L100.47 34.8435L100.648 35.0196L100.642 35.3237L100.671 35.5215L100.662 35.8009L100.638 36.1581L100.614 36.3385L100.595 36.7204L100.62 36.8935L100.575 37.1023L100.577 37.4559L100.561 37.8625L100.562 38.2161L100.52 38.2728L100.273 38.3092L99.9052 38.3885L99.6826 38.4213L99.0679 38.5369L98.6438 38.5741L98.3717 38.6141L98.0538 38.6861L97.8312 38.7188L97.7723 39.0055L97.7454 39.3379L97.7484 40.045L97.7105 40.3033L97.6938 40.5332L97.7055 40.7841L97.6815 40.9645L97.6727 41.4207L97.6684 42.0783L97.6975 42.2762L97.811 42.3606L98.1645 42.3591L99.6238 42.1444L99.9737 42.1182L100.522 42.0629L101.21 41.9363L101.394 41.9851L101.399 42.1866L101.389 42.2892L101.379 42.5685L101.384 42.77L101.365 43.3287L101.412 43.6503L101.388 43.8307L101.36 43.9863L101.361 44.1631L101.341 44.545L101.379 44.9692L101.362 45.199L101.328 45.482L98.978 45.8276L98.5859 45.9106L98.2607 45.9332L98.1159 45.9797L97.5965 46.0561L97.2044 46.1391L97.0102 46.1929ZM111.258 44.173L110.978 44.1636L110.78 44.1927L110.604 44.1934L110.356 44.2298L109.445 44.3892L109.247 44.4183L109.017 44.4015L108.903 44.1404L108.99 43.8749L109.007 43.645L109.002 43.2667L108.993 42.8637L109.037 42.4781L109.004 42.0787L109.049 41.8699L109.016 41.6473L109.04 41.4669L109.015 41.2938L109.035 41.0886L109.034 40.9119L109.008 40.562L109.01 40.2331L109.08 40.0207L109.071 39.6177L109.046 39.4446L109.066 39.2394L109.068 38.9106L109.05 38.7869L109.106 38.4756L109.059 38.3308L109.086 37.9983L109.135 37.8143L109.134 37.6375L109.104 37.2629L109.151 36.5485L109.096 36.1775L109.144 35.8167L109.139 35.4384L109.188 35.2543L109.183 35.0528L109.157 34.7029L109.234 34.54L109.224 33.7834L109.269 33.5746L109.293 33.3942L109.246 33.2494L109.27 32.8922L109.289 32.5103L109.262 31.8068L109.31 31.6228L109.308 31.0925L109.385 30.9295L109.406 30.7244L109.405 30.5476L109.358 30.4028L109.358 30.2261L109.409 29.89L109.408 29.5364L109.46 29.3771L109.435 29.204L109.483 29.0199L109.437 28.8751L109.461 28.6947L109.438 28.3695L109.466 28.2139L109.469 28.0618L109.446 27.7366L109.449 27.5846L109.374 27.4187L109.405 27.111L109.457 26.9517L109.46 26.7997L109.657 26.5938L110.219 26.4606L110.364 26.4141L110.537 26.3886L110.791 26.4017L110.965 26.3762L111.166 26.3719L111.413 26.3355L111.954 26.2307L115.279 25.8174L115.647 25.7381L115.816 25.6879L116.565 25.6282L116.809 25.5671L117.035 25.5591L117.382 25.5082L117.551 25.458L118.862 25.2651L119.031 25.2149L119.314 25.2491L119.45 25.4819L119.447 25.6339L119.494 25.9555L119.456 26.037L119.471 26.3127L119.517 26.4574L119.458 26.5673L119.491 26.7899L119.434 26.9245L119.436 27.278L119.37 27.5152L119.399 27.7131L119.396 27.8651L119.421 28.0382L119.419 28.1903L119.389 28.8515L119.38 29.1309L119.352 29.2866L119.347 29.5907L119.347 29.7674L119.366 30.0679L119.367 30.2447L119.365 30.5735L119.334 30.8812L119.307 31.2136L119.301 31.341L119.278 31.6981L119.236 31.9317L119.269 32.1543L119.27 32.331L119.274 32.5325L119.299 32.7057L119.297 33.0345L119.259 33.2928L119.251 33.7489L119.27 34.0493L119.246 34.2297L119.222 34.5869L119.251 34.7848L119.222 35.4461L119.217 35.7501L119.169 36.111L119.198 36.3088L119.153 36.6944L119.182 36.8923L119.18 37.2211L119.174 37.3484L119.225 37.6947L119.137 37.9602L119.202 38.2286L119.182 38.6106L119.187 38.8121L119.135 39.1482L119.164 39.346L119.141 39.7032L119.142 40.0568L119.14 40.3856L119.166 40.5587L119.132 40.8417L119.12 41.4499L119.093 41.7823L119.095 42.1359L119.068 42.4683L119.072 42.6698L119.031 42.9034L118.769 43.0176L118.126 43.1122L117.95 43.1129L117.232 43.2184L116.879 43.2199L116.681 43.249L116.511 43.2992L116.236 43.3145L116.059 43.3152L115.865 43.369L115.659 43.3487L115.419 43.2578L115.386 43.0352L115.384 42.5048L115.424 42.0945L115.448 41.7373L115.426 41.5889L115.421 41.3874L115.441 41.0055L115.44 40.8287L115.461 40.6236L115.46 40.4468L115.512 40.1107L115.465 39.966L115.496 39.6582L115.495 39.4815L115.529 39.1985L115.549 38.9933L115.591 38.7598L115.608 38.5299L115.613 38.2258L115.588 38.0527L115.612 37.8723L115.615 37.7202L115.614 37.5435L115.564 37.374L115.653 36.7796L115.648 36.4013L115.626 36.2529L115.65 35.8958L115.653 35.7437L115.651 35.3902L115.6 35.0439L115.599 34.6903L115.623 34.5099L115.597 34.16L115.666 33.9476L115.619 33.626L115.625 33.322L115.652 32.9895L115.675 32.6323L115.673 32.102L115.626 31.7805L115.674 31.5964L115.673 31.2429L115.676 31.0908L115.626 30.9213L115.681 30.61L115.684 30.4579L115.707 30.1007L115.706 29.924L115.758 29.5879L115.708 29.4184L115.703 29.2169L115.689 29.1179L114.922 29.2307L114.696 29.2387L113.187 29.4606L112.844 29.5363L112.814 29.844L112.815 30.0208L112.866 30.3671L112.813 30.5264L112.842 30.7243L112.788 31.2124L112.789 31.5659L112.784 32.0468L112.746 32.3051L112.765 32.6055L112.757 33.0616L112.77 33.8429L112.738 34.4795L112.743 35.0345L112.686 35.6747L112.708 35.8231L112.707 36.5055L112.648 36.7921L112.671 37.1173L112.676 37.4956L112.677 37.8491L112.64 38.1074L112.648 38.3336L112.659 38.5846L112.635 38.765L112.626 39.2211L112.573 39.886L112.602 40.0839L112.571 40.3916L112.545 40.9008L112.555 41.4806L112.547 42.2903L112.501 43.1815L112.499 43.3335L112.539 43.6056L112.501 43.8638L112.236 43.9533L111.985 43.965L111.791 44.0188L111.431 44.1476L111.258 44.173ZM123.129 42.351L122.73 42.3845L122.553 42.3852L122.111 42.4755L121.945 42.3736L121.876 41.9037L121.928 41.7444L121.878 41.5749L121.901 41.2177L121.879 41.0693L121.903 40.7121L121.922 40.3302L121.949 39.9977L121.948 39.8209L121.979 39.5132L121.978 39.3364L121.981 39.1844L121.996 38.601L122.049 38.4416L122.026 38.1165L122.025 37.9397L122.053 37.784L122.105 37.4479L122.108 37.2959L122.089 36.9954L122.07 36.8718L122.158 36.6062L122.118 36.3342L122.145 36.1785L122.12 36.0053L122.172 35.846L122.142 35.4714L122.14 34.9411L122.189 34.757L122.185 34.5555L122.158 34.2056L122.182 34.0252L122.185 33.8731L122.209 33.6927L122.212 33.5407L122.236 33.1835L122.231 32.982L122.226 32.6037L122.242 32.197L122.269 31.8646L122.225 31.5678L122.203 31.2426L122.227 31.0622L122.275 30.8781L122.253 30.553L122.256 30.4009L122.297 29.9906L122.281 29.7149L122.242 29.6196L122.269 29.2872L122.272 29.1351L122.231 28.6863L122.251 28.4811L122.275 28.1239L122.316 27.8904L122.297 27.59L122.321 27.4096L122.292 27.2117L122.316 27.0313L122.315 26.8545L122.293 26.7061L122.317 26.5257L122.358 26.1154L122.357 25.9386L122.353 25.7371L122.376 25.3799L122.372 25.1784L122.424 24.8423L122.607 24.7143L123.893 24.5251L124.211 24.4531L124.536 24.4305L124.681 24.3839L126.338 24.1402L126.515 24.1394L126.882 24.0601L127.229 24.0092L127.607 24.0041L127.805 23.975L128.134 23.9772L128.664 23.975L129.071 23.991L129.251 24.015L129.442 24.1132L129.626 24.1619L129.973 24.2877L130.225 24.4529L130.342 24.562L130.52 24.738L130.694 24.8893L130.797 25.0763L130.993 25.376L131.067 25.5419L131.206 25.7994L131.271 26.0678L131.321 26.2373L131.436 26.4985L131.447 26.7495L131.527 27.1168L131.552 27.29L131.617 27.5584L131.632 27.8341L131.623 28.1135L131.623 28.2902L131.654 28.8417L131.655 29.1952L131.607 29.3793L131.611 29.5808L131.562 29.7648L131.559 29.9169L131.532 30.0725L131.508 30.4297L131.463 30.6385L131.391 31.003L131.262 31.502L131.178 31.7923L131.049 32.1146L130.881 32.5183L130.754 32.6885L130.625 33.0108L130.431 33.2414L130.294 33.5142L130.196 33.7056L129.911 34.0002L129.809 34.1668L129.488 34.3909L129.252 34.5014L128.952 34.6971L128.575 34.879L128.285 34.9721L127.967 35.0442L127.628 35.1446L126.943 35.2959L126.469 35.3403L125.925 35.4203L125.551 35.4502L125.558 35.4996L125.559 35.6764L125.514 35.8852L125.536 36.2104L125.505 36.3413L125.527 36.6665L125.525 36.8186L125.525 36.9953L125.498 37.151L125.498 37.3278L125.52 37.4762L125.497 37.8334L125.455 38.0669L125.45 38.371L125.426 38.5514L125.395 38.8591L125.396 39.0359L125.347 39.2199L125.383 39.4673L125.364 39.8492L125.415 40.1955L125.338 40.3584L125.367 40.5563L125.367 40.7331L125.34 40.8888L125.341 41.0655L125.295 41.2743L125.304 41.5006L125.308 41.7021L125.277 42.0098L125.108 42.06L123.129 42.351ZM125.612 32.2573L126.255 32.1627L126.52 32.0732L126.982 31.9546L127.144 31.855L127.497 31.5L127.732 31.2126L127.865 30.9151L127.942 30.7521L128.015 30.3876L128.032 30.1578L128.098 29.9206L128.135 29.4856L128.132 28.7785L128.087 28.1281L128.025 27.7076L127.883 27.4254L127.702 27.2246L127.4 27.0668L127.17 27.05L126.499 27.1235L125.934 27.2319L125.768 27.3069L125.688 27.6219L125.657 27.7528L125.668 28.0038L125.681 28.4315L125.657 28.612L125.626 28.9197L125.625 29.4253L125.612 29.6799L125.596 30.0865L125.615 30.387L125.644 30.5849L125.627 30.8147L125.594 31.4513L125.627 31.6739L125.604 32.0311L125.612 32.2573ZM138.617 40.452L137.963 40.4724L137.645 40.5444L137.468 40.5451L137.242 40.5532L136.647 40.4637L136.446 40.4681L136.06 40.4237L135.873 40.3502L135.494 40.1786L134.994 39.873L134.589 39.5282L134.497 39.4155L134.355 39.31L134.259 39.1725L134.11 39.0176L133.865 38.7251L133.843 38.5767L133.743 38.4145L133.697 38.2697L133.629 38.1533L133.558 38.0122L133.508 37.8427L133.436 37.7016L133.361 37.359L133.314 37.2142L133.167 36.7304L133.191 36.55L133.122 36.0801L133.16 35.8218L133.106 35.6276L133.08 35.4545L133.05 34.903L133.098 34.5422L133.069 34.3443L133.067 33.9908L133.042 33.8176L133.09 33.4568L133.022 33.3404L133.024 33.0116L133.048 32.8312L133.057 32.3751L133.088 32.0674L133.04 31.7458L133.071 31.4381L133.045 31.265L133.098 31.1056L133.122 30.9252L133.1 30.7768L133.124 30.5964L133.077 30.4516L133.189 30.1825L133.213 30.0021L133.162 29.6558L133.168 29.3517L133.217 29.1677L133.22 29.0156L133.218 28.6621L133.226 28.0292L133.325 27.8378L133.327 27.509L133.428 27.1656L133.477 26.9816L133.532 26.6702L133.605 26.3058L133.709 25.9871L133.783 25.7994L133.958 25.4452L133.957 25.2684L134.035 25.1054L134.185 24.7548L134.339 24.4289L134.494 24.2797L134.596 24.1131L134.888 23.6912L135.177 23.4213L135.364 23.318L135.519 23.1689L135.79 22.9521L136.065 22.76L136.421 22.6065L136.566 22.5599L136.923 22.4064L137.166 22.3453L137.601 22.2056L137.943 22.13L138.236 22.0616L138.685 22.0208L138.837 22.0237L139.113 22.0084L139.516 21.9997L139.725 22.0448L139.926 22.0404L140.082 22.0681L140.478 22.1866L140.967 22.4179L141.183 22.5125L141.329 22.6427L141.634 22.8253L141.942 23.0326L142.088 23.1628L142.187 23.3251L142.383 23.6248L142.479 23.7623L142.55 23.9034L142.625 24.0692L142.754 24.4293L142.873 24.892L142.926 25.0862L142.952 25.2594L142.974 25.5846L142.972 25.7366L143.044 26.0545L143.069 26.2276L143.092 26.5528L143.068 26.7332L143.065 26.8853L143.115 27.0548L143.151 27.3021L143.148 27.4541L143.15 27.8077L143.18 28.1823L143.213 28.5817L143.189 28.7621L143.198 29.1652L143.259 29.4089L143.175 29.6991L143.244 29.9923L143.192 30.3284L143.19 30.6572L143.163 30.9897L143.182 31.2901L143.155 31.6226L143.103 31.7819L143.094 32.238L143.127 32.4606L143.103 32.641L143.104 32.9946L143.052 33.1539L142.932 34.0559L142.978 34.2007L142.898 34.5157L142.846 34.675L142.861 34.9507L142.778 35.241L142.747 35.5487L142.773 35.7219L142.738 36.0048L142.64 36.1962L142.652 36.4471L142.53 36.8189L142.397 37.2932L142.299 37.4845L142.124 37.8388L142.047 38.0018L141.945 38.1684L141.917 38.324L141.664 38.6645L141.534 38.81L141.432 38.9766L141.168 39.2429L140.9 39.4844L140.812 39.5731L140.276 39.8794L140.107 39.9296L139.916 40.0082L139.581 40.1333L139.411 40.1835L139.15 40.2978L138.617 40.452ZM137.924 37.1173L138.246 37.07L138.577 36.9201L138.785 36.7885L139.095 36.4902L139.217 36.1184L139.315 35.7503L139.339 35.5699L139.31 35.3721L139.329 34.9901L139.353 34.8097L139.352 34.4562L139.397 34.2474L139.371 33.8975L139.42 33.7134L139.446 33.381L139.442 33.1795L139.494 33.0201L139.465 32.8223L139.43 32.7517L139.471 32.5182L139.491 32.1363L139.457 31.5601L139.498 31.3266L139.543 31.1178L139.524 30.6406L139.576 30.4813L139.489 30.0644L139.534 29.6789L139.539 29.3748L139.56 29.1696L139.584 28.9892L139.534 28.8197L139.511 28.4945L139.531 28.2894L139.555 27.9322L139.571 27.7023L139.524 27.3808L139.508 26.9283L139.486 26.6031L139.484 26.2496L139.312 25.7694L139.192 25.6356L138.986 25.4385L138.565 25.3235L138.098 25.4174L137.908 25.496L137.534 25.7026L137.319 25.9616L137.186 26.2591L137.131 26.5705L137.057 26.7582L136.956 27.1015L136.932 27.2819L136.912 27.4871L136.84 28.0283L136.847 28.0778L136.851 28.2793L136.828 28.6365L136.825 28.7885L136.777 29.1494L136.754 29.5065L136.738 29.9132L136.739 30.09L136.715 30.2704L136.72 30.6487L136.675 30.8575L136.634 31.2678L136.61 31.4482L136.611 31.8017L136.637 31.9749L136.638 32.1516L136.692 32.3459L136.643 32.5299L136.57 32.8944L136.624 33.0886L136.6 33.269L136.639 33.3643L136.622 33.5942L136.652 33.7921L136.628 33.9725L136.657 34.1704L136.637 34.5523L136.662 34.7254L136.614 34.9095L136.713 35.0717L136.732 35.3721L136.67 35.634L136.769 35.7962L136.871 36.4888L136.971 36.651L137.035 36.7427L137.216 36.9435L137.358 37.0489L137.567 37.094L137.772 37.1144L137.924 37.1173ZM147.327 38.7918L147.125 38.7962L146.948 38.7969L145.588 38.997L145.358 38.9803L145.244 38.7191L145.31 38.482L145.333 37.948L145.343 37.8454L145.334 37.4424L145.378 37.0569L145.345 36.6575L145.39 36.4487L145.357 36.2261L145.381 36.0457L145.356 35.8725L145.376 35.6674L145.379 35.5154L145.353 35.1654L145.355 34.8366L145.425 34.6242L145.416 34.2212L145.391 34.048L145.411 33.8429L145.413 33.5141L145.395 33.3904L145.45 33.0791L145.404 32.9343L145.431 32.6018L145.479 32.4178L145.479 32.241L145.495 32.0111L145.477 31.8875L145.516 31.806L145.522 31.6787L145.545 31.1447L145.49 30.7737L145.538 30.4129L145.533 30.0346L145.582 29.8505L145.577 29.649L145.551 29.2991L145.628 29.1362L145.668 28.3723L145.713 28.1635L145.74 28.0078L145.694 27.8631L145.717 27.5059L145.761 27.1203L145.684 26.4241L145.733 26.2401L145.681 25.717L145.758 25.5541L145.779 25.3489L145.778 25.1722L145.732 25.0274L145.731 24.8506L145.782 24.5145L145.781 24.161L145.833 24.0017L145.808 23.8285L145.857 23.6445L145.81 23.4997L145.834 23.3193L145.811 22.9941L145.839 22.8384L145.842 22.6864L145.819 22.3612L145.822 22.2092L145.747 22.0433L145.778 21.7356L145.83 21.5763L145.844 21.4984L146.091 21.2853L146.483 21.2023L146.628 21.1558L146.801 21.1303L147.052 21.1187L147.67 21.0277L148.211 20.9229L150.016 20.6574L152.444 20.3256L152.815 20.271L152.992 20.2702L153.21 20.2128L153.483 20.1728L153.882 20.1393L154.014 20.3473L153.987 20.6798L154.009 20.8282L153.976 21.4647L153.998 21.6131L153.974 21.7935L153.974 21.9703L153.971 22.1224L153.927 22.5079L153.931 22.7094L153.918 22.964L153.841 23.127L153.782 23.4136L153.546 23.5242L151.472 23.8545L149.444 24.1529L149.101 24.2285L149.071 24.5363L149.071 24.713L149.122 25.0593L149.07 25.2186L149.099 25.4165L149.094 25.8974L149.095 26.2509L149.048 26.7885L149.077 26.9864L149.096 27.2868L149.051 27.4956L149.595 27.4156L149.814 27.3581L150.143 27.3603L150.489 27.3093L150.892 27.3006L151.412 27.2242L151.946 27.2467L152.335 27.3158L152.515 27.3398L152.731 27.4344L152.919 27.5079L153.241 27.6373L153.518 27.7988L153.61 27.9116L153.812 28.084L153.961 28.2389L154.09 28.4222L154.285 28.722L154.335 28.8915L154.474 29.149L154.564 29.4138L154.589 29.5869L154.707 29.8728L154.744 30.1201L154.823 30.4875L154.824 30.6643L154.888 30.9327L154.928 31.2048L154.919 31.4841L154.891 31.6398L154.9 32.0428L154.902 32.3964L154.878 32.5768L154.857 32.7819L154.833 32.9624L154.803 33.2701L154.779 33.6273L154.71 33.8397L154.637 34.2042L154.508 34.7032L154.424 34.9935L154.176 35.7122L154.046 35.8577L153.917 36.18L153.748 36.407L153.562 36.687L153.439 36.882L153.048 37.3185L152.748 37.5142L152.512 37.6248L152.187 37.8241L151.835 38.0024L151.545 38.0955L151.224 38.1428L150.885 38.2432L150.171 38.3734L148.881 38.5379L148.634 38.5743C148.123 38.6494 147.783 38.6909 147.616 38.6987L147.327 38.7918ZM149.818 35.1151L150.132 35.0183L150.418 34.9005L150.728 34.6022L150.943 34.3432L151.076 34.0457L151.178 33.8791L151.258 33.5641L151.299 33.3306L151.33 33.0229L151.349 32.6409L151.343 32.0859L151.231 31.4959L151.145 31.0791L151.002 30.7968L150.846 30.5924L150.52 30.4382L150.311 30.3931L149.806 30.3916L149.216 30.5037L149.05 30.5786L149.034 31.1621L148.976 31.4487L148.949 31.7811L148.954 32.1594L148.955 32.513L148.917 32.7712L148.925 32.9975L148.937 33.2484L148.913 33.4289L148.904 33.885L148.868 34.4968L148.872 34.6983L148.884 34.9493L148.888 35.1508L149.567 35.1267L149.818 35.1151ZM162.07 37.0022L161.416 37.0226L161.098 37.0946L160.922 37.0953L160.695 37.1033L160.101 37.0139L159.9 37.0182L159.514 36.9739L159.326 36.9004L158.947 36.7287L158.448 36.4232L158.043 36.0784L157.951 35.9657L157.809 35.8602L157.713 35.7227L157.564 35.5677L157.318 35.2753L157.297 35.1269L157.197 34.9647L157.15 34.8199L157.083 34.7035L157.011 34.5624L156.961 34.3929L156.89 34.2518L156.814 33.9091L156.768 33.7644L156.621 33.2806L156.645 33.1002L156.576 32.6303L156.613 32.372L156.56 32.1778L156.534 32.0046L156.504 31.4532L156.552 31.0924L156.522 30.8945L156.521 30.541L156.496 30.3678L156.544 30.007L156.476 29.8906L156.478 29.5618L156.502 29.3814L156.511 28.9252L156.541 28.6175L156.494 28.296L156.525 27.9883L156.499 27.8151L156.551 27.6558L156.575 27.4754L156.554 27.327L156.578 27.1466L156.531 27.0018L156.643 26.7326L156.667 26.5522L156.616 26.206L156.622 25.9019L156.671 25.7178L156.674 25.5658L156.672 25.2122L156.68 24.5793L156.778 24.388L156.781 24.0592L156.882 23.7158L156.93 23.5318L156.986 23.2204L157.058 22.8559L157.163 22.5373L157.237 22.3496L157.412 21.9953L157.411 21.8186L157.488 21.6556L157.639 21.305L157.793 20.9791L157.948 20.8299L158.05 20.6633L158.342 20.2414L158.63 19.9715L158.817 19.8682L158.972 19.719L159.244 19.5022L159.519 19.3102L159.875 19.1567L160.02 19.1101L160.376 18.9566L160.62 18.8955L161.054 18.7558L161.397 18.6801L161.69 18.6117L162.139 18.571L162.291 18.5739L162.567 18.5586L162.97 18.5499L163.178 18.595L163.38 18.5906L163.536 18.6182L163.932 18.7368L164.421 18.9681L164.637 19.0627L164.783 19.1929L165.087 19.3755L165.396 19.5828L165.541 19.713L165.641 19.8752L165.837 20.1749L165.933 20.3124L166.004 20.4536L166.079 20.6194L166.208 20.9795L166.326 21.4422L166.38 21.6364L166.406 21.8096L166.428 22.1347L166.425 22.2868L166.497 22.6047L166.523 22.7778L166.545 23.103L166.521 23.2834L166.518 23.4354L166.569 23.6049L166.605 23.8523L166.602 24.0043L166.604 24.3579L166.633 24.7325L166.667 25.1319L166.643 25.3123L166.652 25.7153L166.713 25.959L166.629 26.2493L166.697 26.5425L166.646 26.8786L166.644 27.2074L166.617 27.5398L166.636 27.8403L166.609 28.1727L166.556 28.332L166.548 28.7882L166.58 29.0108L166.556 29.1912L166.558 29.5447L166.506 29.7041L166.386 30.6061L166.432 30.7509L166.352 31.0659L166.3 31.2252L166.315 31.5009L166.231 31.7912L166.201 32.0989L166.226 32.272L166.192 32.555L166.094 32.7463L166.106 32.9973L165.983 33.3691L165.851 33.8434L165.753 34.0347L165.577 34.389L165.5 34.5519L165.398 34.7185L165.371 34.8742L165.118 35.2147L164.987 35.3602L164.886 35.5268L164.622 35.793L164.354 36.0346L164.266 36.1233L163.73 36.4296L163.56 36.4798L163.37 36.5584L163.034 36.6835L162.865 36.7337L162.604 36.8479L162.07 37.0022ZM161.378 33.6675L161.699 33.6202L162.031 33.4703L162.239 33.3386L162.549 33.0404L162.671 32.6686L162.769 32.3005L162.793 32.1201L162.763 31.9222L162.783 31.5403L162.807 31.3599L162.806 31.0063L162.851 30.7976L162.825 30.4476L162.873 30.2636L162.9 29.9311L162.896 29.7296L162.948 29.5703L162.919 29.3724L162.883 29.3019L162.925 29.0684L162.945 28.6864L162.91 28.1103L162.952 27.8768L162.997 27.668L162.977 27.1908L163.03 27.0314L162.943 26.6146L162.987 26.229L162.993 25.925L163.014 25.7198L163.038 25.5394L162.987 25.3699L162.965 25.0447L162.985 24.8396L163.008 24.4824L163.025 24.2525L162.978 23.931L162.962 23.4785L162.939 23.1533L162.938 22.7998L162.766 22.3196L162.645 22.1858L162.439 21.9886L162.018 21.8737L161.552 21.9676L161.361 22.0461L160.987 22.2528L160.773 22.5117L160.64 22.8093L160.584 23.1206L160.511 23.3083L160.41 23.6517L160.386 23.8321L160.365 24.0373L160.293 24.5785L160.301 24.628L160.305 24.8295L160.282 25.1867L160.279 25.3387L160.231 25.6995L160.208 26.0567L160.192 26.4634L160.192 26.6401L160.168 26.8206L160.174 27.1988L160.128 27.4076L160.088 27.8179L160.064 27.9983L160.065 28.3519L160.091 28.525L160.091 28.7018L160.145 28.896L160.096 29.0801L160.024 29.4446L160.078 29.6388L160.054 29.8192L160.093 29.9145L160.076 30.1444L160.105 30.3422L160.081 30.5227L160.11 30.7205L160.091 31.1025L160.116 31.2756L160.067 31.4596L160.167 31.6219L160.186 31.9223L160.123 32.1842L160.223 32.3464L160.325 33.039L160.425 33.2012L160.489 33.2929L160.67 33.4936L160.812 33.5991L161.021 33.6442L161.226 33.6646L161.378 33.6675ZM171.893 35.1783L171.49 35.187L171.292 35.2161L170.9 35.2991L169.886 35.4482L169.734 35.4453L169.536 35.4744L169.162 35.5043L168.935 35.5123L168.74 35.3893L168.736 35.1878L168.749 34.9332L168.695 34.5622L168.74 34.3534L168.756 34.1235L168.755 33.77L168.761 33.4659L168.76 33.2891L168.812 32.953L168.81 32.5995L168.784 32.2496L168.812 32.0939L168.811 31.9171L168.835 31.7367L168.831 31.5352L168.876 31.3264L168.879 31.1744L168.873 30.7961L168.865 30.3931L168.927 30.1312L168.866 29.8875L168.889 29.5303L168.934 29.3215L168.955 29.1164L168.958 28.9643L168.932 28.7912L168.959 28.4587L168.961 28.1299L168.961 27.9531L168.991 27.6454L168.969 27.497L168.98 27.3944L168.993 27.1398L169.041 26.779L169.014 26.4291L169.046 26.2981L169.097 25.962L169.093 25.7605L169.141 25.3997L169.139 25.0462L169.11 24.8483L169.11 24.6715L169.134 24.4911L169.175 24.2576L169.167 24.0313L169.148 23.7309L169.172 23.5505L169.175 23.3984L169.22 23.1897L169.212 22.9634L169.215 22.8114L169.19 22.6382L169.217 22.4826L169.22 22.3305L169.215 21.9522L169.263 21.5914L169.196 20.7926L169.216 20.4107L169.243 20.0783L169.304 19.4628L169.331 19.1304L169.302 18.9325L169.301 18.7557L169.271 18.3811L169.288 18.1512L169.344 18.0166L169.537 17.786L169.88 17.7103L170.498 17.6194L170.65 17.6223L170.919 17.5575L171.438 17.4811L172.657 17.3523L173.643 17.1821L173.993 17.1559L174.735 17.0467L175.014 17.0562L175.265 17.0445L175.651 17.0889L175.959 17.1194L176.224 17.2067L176.461 17.2729L176.766 17.4555L177.139 17.7545L177.39 17.9196L177.511 18.0535L177.603 18.1662L177.746 18.4485L177.945 18.7729L177.999 18.9671L178.025 19.1403L178.103 19.3309L178.196 19.6204L178.226 19.995L178.223 20.1471L178.249 20.3202L178.246 20.4723L178.222 20.6527L178.244 20.8011L178.241 21.1299L178.242 21.3067L178.191 21.6428L178.237 21.7875L178.213 21.9679L178.199 22.0458L178.2 22.2226L178.172 22.3782L178.148 22.5587L178.096 22.718L178.03 22.9551L177.897 23.2527L177.76 23.5255L177.606 23.8514L177.332 24.2202L177.222 24.3373L177.121 24.5039L177.011 24.6211L176.853 24.7455L176.582 24.9623L176.303 25.1296L176.095 25.2613L176.117 25.4097L176.379 25.4722L176.672 25.5806L176.91 25.6468L177.236 25.801L177.409 25.9523L177.58 26.0789L177.764 26.3044L177.889 26.463L178.053 26.7169L178.138 26.9569L178.234 27.0944L178.331 27.4087L178.477 27.7157L178.5 28.0409L178.586 28.2809L178.594 28.5072L178.641 28.8287L178.642 29.0055L178.647 29.3838L178.627 29.7657L178.6 30.0981L178.601 30.2749L178.578 30.6321L178.55 30.7878L178.526 30.9682L178.499 31.1239L178.475 31.3043L178.195 32.154L178.016 32.4835L177.908 32.7774L177.802 32.9193L177.651 33.0932L177.57 33.2314L177.391 33.3842L177.253 33.4802L177.148 33.6221L176.989 33.7465L176.88 33.8636L176.767 33.956L176.605 34.0556L176.422 34.1837L176.161 34.2979L175.974 34.4012L175.829 34.4478L175.61 34.5052L175.299 34.6267L175.147 34.6238L174.787 34.7526L174.413 34.7825L174.236 34.7832L174.066 34.8334L173.402 34.9563L173.077 34.9789L172.875 34.9833L172.529 35.0342L172.335 35.0881L172.261 35.099L171.893 35.1783ZM173.106 24.0079L173.448 23.9323L173.738 23.8391L173.917 23.6864L174.164 23.4732L174.425 23.1822L174.515 22.9414L174.677 22.665L174.75 22.3005L174.78 21.9928L174.808 21.8371L174.803 21.6356L174.866 21.3737L174.801 21.1053L174.751 20.9358L174.683 20.6426L174.491 20.3676L174.398 20.2549L174.175 20.1108L174.023 20.1079L173.793 20.0912L173.34 20.1072L172.722 20.1982L172.532 20.2768L172.557 20.4499L172.516 20.6834L172.524 20.9097L172.524 21.0864L172.494 21.3942L172.519 21.5673L172.492 21.8997L172.493 22.0765L172.465 22.2322L172.471 23.4696L172.45 23.6748L172.462 23.9258L172.484 24.0742L172.805 24.0269L173.106 24.0079ZM172.636 31.8093L172.848 31.7024L173.477 31.6856L173.947 31.6165L174.109 31.5168L174.282 31.4914L174.444 31.3917L174.642 31.1858L174.793 31.012L174.909 30.7675L174.904 30.566L174.988 30.2758L175.012 30.0953L175.007 29.8938L175.084 29.5541L175.068 29.1016L174.981 28.6848L174.959 28.3596L174.649 27.7987L174.34 27.5914L173.845 27.4874L173.59 27.4743L173.385 27.454L173.039 27.5049L172.763 27.5202L172.417 27.5711L172.375 27.8046L172.391 28.2571L172.371 28.4623L172.336 28.5685L172.341 28.9468L172.317 29.1272L172.343 29.3003L172.315 29.456L172.319 29.6575L172.321 30.011L172.297 30.1915L172.277 30.5734L172.303 30.7465L172.304 31.1001L172.284 31.3052L172.288 31.5067L172.237 31.8428L172.636 31.8093ZM182.191 33.6888L181.817 33.7186L181.64 33.7194L179.831 33.9602L179.601 33.9435L179.522 33.7529L179.546 33.5725L179.549 33.4204L179.654 33.1018L179.805 32.7511L179.943 31.9727L180.048 31.6541L180.128 31.3391L180.312 30.7055L180.364 30.3694L180.496 29.8951L180.524 29.7394L180.622 29.5481L180.702 29.2331L180.73 29.0774L180.729 28.9006L180.781 28.7413L180.858 28.4016L180.907 28.2175L181.029 27.8458L181.053 27.6654L181.069 27.4355L181.164 27.2194L181.269 26.9008L181.293 26.7204L181.39 26.3523L181.393 26.2002L181.442 26.0162L181.494 25.8569L181.567 25.4924L181.619 25.3331L181.715 24.6114L181.76 24.4026L181.886 24.0556L181.948 23.617L182.057 23.3231L182.109 23.1637L182.136 22.8313L182.234 22.64L182.261 22.3075L182.292 22.1766L182.393 21.8332L182.417 21.476L182.515 21.2847L182.592 21.1217L182.713 20.5732L182.79 20.2335L182.842 20.0742L182.958 19.8297L182.996 19.5715L183.044 19.3874L183.201 18.9095L183.225 18.7291L183.278 18.5697L183.305 18.4141L183.329 18.2336L183.438 17.9397L183.515 17.7768L183.546 17.6458L183.629 17.1788L183.755 16.8318L183.912 16.3538L183.961 16.1698L184.013 16.0105L184.072 15.7239L184.242 15.6736L184.489 15.6373L184.963 15.5929L185.206 15.5318L185.602 15.4736L186.068 15.3797L186.291 15.347L186.471 15.371L186.69 15.3135L187.086 15.2553L187.217 15.2865L187.408 15.3847L187.639 16.4374L187.719 16.9815L187.79 17.1227L187.856 17.5679L188.011 18.4546L188.062 18.8009L188.134 19.1188L188.257 19.6062L188.308 19.9525L188.387 20.3199L188.388 20.4966L188.468 21.0408L188.568 21.3798L188.641 21.8745L188.716 22.2171L188.714 22.3691L188.786 22.687L188.807 22.8354L188.89 23.2276L188.98 23.4923L189.122 24.457L189.19 24.7501L189.244 24.9444L189.353 25.6864L189.545 26.8205L189.571 26.9936L189.65 27.361L189.68 27.7357L189.755 28.0783L189.756 28.2551L189.944 29.1877L189.966 29.3361L190.038 29.654L190.088 29.8235L190.143 30.1945L190.169 30.5444L190.223 30.7386L190.255 30.9612L190.36 31.5017L190.437 32.0212C190.515 32.2118 190.51 32.3473 190.421 32.4278L190.148 32.4678L189.979 32.518L189.777 32.5224L189.431 32.5733L188.891 32.6781L188.693 32.7072L188.392 32.7261L188.223 32.7763L187.979 32.8375L187.654 32.86L187.283 32.9146L187.173 32.8549L187.087 32.6149L186.997 32.1733L186.936 31.9296L186.924 31.6786L186.753 30.5161L186.699 30.3219L186.152 30.3772L185.749 30.386L184.657 30.5213L183.989 30.6195L183.905 30.9098L183.779 31.2568L183.755 31.4372L183.707 31.6213L183.651 31.9326L183.473 32.4389L183.379 32.8318L183.345 33.1148L183.289 33.2494L183.216 33.437L183.082 33.5578L182.386 33.6349L182.191 33.6888ZM185.396 27.1276L186.138 27.0185L186.268 26.873L186.242 26.5231L186.188 26.3288L186.184 26.1273L186.089 25.4843L186.088 25.3075L186.026 24.887L186.047 24.6819L185.935 24.0919L185.821 23.1484L185.715 22.2543L185.607 21.6891L185.42 21.7924L185.368 22.1285L185.302 22.5424L185.265 22.8006L185.199 23.2146L185.129 23.427L185.067 23.6889L185.068 23.8657L184.994 24.0534L184.953 24.2869L184.904 24.4709L184.862 24.7044L184.794 25.2704L184.795 25.4472L184.726 25.8364L184.652 26.0241L184.59 26.4627L184.566 26.6432L184.55 26.873L184.501 27.0571L184.696 27.18L184.894 27.1509L185.169 27.1356L185.396 27.1276ZM201.326 30.8742L201.15 30.8749L200.432 30.9804L200.079 30.9819L199.881 31.011L199.711 31.0612L199.436 31.0765L199.259 31.0772L199.065 31.1311L198.86 31.1107L198.619 31.0198L198.586 30.7972L198.559 30.2705L198.6 29.8602L198.623 29.503L198.622 29.3262L198.618 29.1247L198.638 28.7428L198.637 28.566L198.657 28.3609L198.656 28.1841L198.708 27.848L198.662 27.7032L198.67 27.2471L198.704 26.9641L198.721 26.7343L198.763 26.5007L198.779 26.2709L198.785 25.9668L198.76 25.7936L198.784 25.6132L198.787 25.4612L198.811 25.2808L198.76 25.1113L198.853 24.5417L198.848 24.1634L198.827 24.015L198.85 23.6578L198.853 23.5057L198.851 23.1522L198.8 22.8059L198.848 22.4451L198.823 22.272L198.821 21.9184L198.891 21.706L198.844 21.3844L198.85 21.0804L198.877 20.7479L198.949 20.3834L198.947 19.8531L198.896 19.5068L198.945 19.3228L198.944 18.9692L198.946 18.8172L198.896 18.6477L198.952 18.3363L198.954 18.1843L198.981 17.8518L198.981 17.6751L199.032 17.339L198.982 17.1695L198.978 16.968L198.963 16.869L198.196 16.9818L197.97 16.9898L197.154 17.1099L196.737 17.1965L196.756 17.4969L196.732 17.6773L196.733 18.0309L196.731 18.1829L196.76 18.3808L196.73 18.8653L196.731 19.2188L196.659 19.7601L196.688 19.9579L196.683 20.262L196.638 20.6476L196.638 21.5067L196.581 22.1469L196.562 22.7056L196.529 23.3421L196.485 23.7277L196.51 23.9008L196.507 24.0529L196.483 24.2333L196.481 24.5621L196.454 24.7178L196.376 25.7399L196.304 26.2811L196.26 26.6667L196.236 26.8471L196.216 27.229L196.164 27.3883L196.115 27.5724L196.056 27.859L196.015 28.0925L195.963 28.2518L195.827 28.7014L195.715 28.9706L195.637 29.1336L195.374 29.5766L195.125 29.9418L195.026 30.1331L194.9 30.3033L194.548 30.6584L194.22 31.0097L193.903 31.2585L193.72 31.3866L193.533 31.4899L193.131 31.6754L192.277 32.0537L191.736 32.1585L191.569 31.8799L191.457 31.2899L191.416 30.8411L191.319 30.35L191.22 29.6822L191.169 29.1592L191.15 28.8587C191.376 28.7918 191.601 28.6659 191.827 28.4811L192.263 28.0126L192.565 27.4881L192.776 27.0276L192.873 26.6595L192.904 26.3518L192.976 25.9873L193.024 25.6265L193.086 25.1878L193.14 24.5229L193.139 24.3461L193.156 24.1163L193.183 23.7838L193.143 23.5117L193.179 22.8999L193.2 22.6948L193.173 22.3449L193.226 22.1856L193.166 21.4363L193.236 21.2238L193.26 21.0434L193.213 20.8987L193.212 20.5451L193.256 20.1596L193.204 19.4597L193.253 19.2757L193.226 18.749L193.303 18.586L193.348 18.3773L193.347 18.2005L193.301 18.0557L193.3 17.8789L193.376 17.5392L193.375 17.1857L193.427 17.0263L193.402 16.8532L193.45 16.6691L193.379 16.528L193.403 16.3476L193.405 16.0188L193.433 15.8631L193.436 15.7111L193.364 15.3932L193.391 15.2375L193.316 15.0716L193.372 14.7603L193.424 14.601L193.427 14.4489L193.674 14.2358L194.062 14.1281L194.207 14.0815L194.627 14.0197L194.882 14.0328L195.055 14.0073L195.257 14.0029L196.179 13.9178L197.479 13.6507L198.553 13.5685L198.921 13.4892L199.09 13.439L199.592 13.4157L199.836 13.3546L200.062 13.3466L200.408 13.2957L200.578 13.2455L201.889 13.0526L202.058 13.0024L202.341 13.0366L202.477 13.2694L202.474 13.4214L202.521 13.743L202.483 13.8245L202.498 14.1002L202.544 14.2449L202.485 14.3548L202.517 14.5774L202.461 14.712L202.463 15.0655L202.397 15.3027L202.426 15.5006L202.423 15.6526L202.448 15.8257L202.445 15.9778L202.416 16.639L202.407 16.9184L202.379 17.0741L202.373 17.3782L202.374 17.5549L202.393 17.8554L202.394 18.0321L202.392 18.361L202.361 18.6687L202.334 19.0011L202.328 19.1284L202.304 19.4856L202.263 19.7192L202.296 19.9418L202.296 20.1185L202.301 20.32L202.326 20.4932L202.324 20.822L202.286 21.0802L202.272 21.8405L202.248 22.0209L202.175 22.3853L202.204 22.5832L202.175 23.2445L202.169 23.5486L202.121 23.9094L202.15 24.1073L202.102 24.4681L202.131 24.666L202.133 25.0195L202.126 25.1468L202.177 25.4931L202.09 25.7586L202.155 26.027L202.135 26.409L202.14 26.6105L202.088 26.9466L202.117 27.1444L202.094 27.5016L202.095 27.8552L202.093 28.184L202.118 28.3571L202.084 28.6401L202.073 29.2483L202.046 29.5807L202.047 29.9343L202.02 30.2667L202.025 30.4683L201.983 30.7018L201.722 30.816L201.326 30.8742ZM209.888 23.9799L208.492 24.1094L207.997 24.1822L207.548 24.2229L207.375 24.2484L207.001 24.2782L206.848 24.0985L206.78 23.8054L206.8 23.6002L206.823 23.243L206.84 23.0132L206.906 22.776L207.052 22.2239L207.052 22.0471L207.314 21.4273L207.518 21.0941L207.563 20.8853L207.665 20.7187L207.844 20.3891L207.977 20.0916L208.135 19.9672L208.205 19.7548L208.311 19.6129L208.363 19.4536L208.444 19.3154L208.598 18.9895L208.724 18.6425L208.78 18.5079L208.832 18.1718L208.933 18.0052L209.017 17.7149L209.037 17.5098L209.135 17.1417L209.133 16.7881L209.161 16.6325L209.138 16.1305L209.055 15.7384L208.965 15.4736L208.851 15.2124L208.62 15.0189L208.306 14.9389L207.843 15.0575L207.614 15.2176L207.357 15.5333L207.263 15.9261L207.243 16.1313L207.28 16.5554L207.256 16.7358L207.29 17.312L207.291 17.6655L207.112 17.8183L206.971 17.8896L206.547 17.9267L206.133 18.038L204.699 18.249L204.334 18.1763L204.192 17.894L204.192 17.2117L204.191 16.8581L204.187 16.6566L204.214 16.3242L204.181 16.1016L204.257 15.7618L204.302 15.553L204.302 15.3763L204.35 15.1922L204.454 14.6968L204.457 14.5448L204.583 14.1978L204.66 14.0348L204.818 13.7336L204.895 13.5707L205.106 13.2869L205.244 13.1909L205.42 13.0134L205.55 12.8679L205.903 12.6897L206.029 12.5194L206.357 12.3448L206.749 12.2619L206.936 12.1586L207.117 12.1826L207.424 12.0364L207.819 11.9781L208.137 11.9061L208.282 11.8595L208.911 11.8428L209.407 11.9468L209.743 11.9985L209.948 12.0188L210.295 12.1447L210.5 12.165L210.684 12.2138L210.879 12.3367L211.057 12.5127L211.511 12.8503L211.61 13.0125L211.682 13.1536L211.998 13.5872L212.059 13.8309L212.301 14.2754L212.419 14.5612L212.482 15.1585L212.459 15.6925L212.489 16.0671L212.462 16.2228L212.462 16.3996L212.39 16.764L212.366 16.9444L212.349 17.1743L212.3 17.3584L212.227 17.7228L212.249 17.8712L212.095 18.1971L211.983 18.4663L211.899 18.7566L211.776 18.9515L211.668 19.2454L211.619 19.4295L211.437 19.7343L211.332 20.0529L211.142 20.3083L211.02 20.68L210.918 20.8466L210.663 21.5159L210.61 21.6752L210.481 21.9975L210.453 22.1532L210.363 22.5708L210.332 22.8785L210.263 23.0909L210.235 23.2466L210.19 23.4554L210.209 23.7558L210.111 23.9471L209.888 23.9799ZM209.583 29.6345L209.48 29.6243L208.664 29.7444L208.091 29.8033L207.643 29.8441L207.392 29.8557L207.063 29.8536L206.907 29.8259L206.836 29.6848L206.741 29.0417L206.775 28.7587L206.722 28.5645L206.749 28.4088L206.744 28.0305L206.715 26.9735L206.731 26.5669L206.762 26.4359L206.913 26.262L207.207 26.1937L207.655 26.1529L208.302 26.083L208.5 26.0539L208.744 25.9928L208.896 25.9957L209.292 25.9375L209.666 25.9077L209.839 25.8822L210.08 25.9731L210.307 26.1419L210.383 26.4845L210.363 26.8665L210.357 27.1705L210.359 27.5241L210.325 27.9839L210.365 28.2559L210.36 28.56L210.382 28.8852L210.337 29.094L210.154 29.3988L209.805 29.6018L209.583 29.6345Z" fill="white"/>
<defs>
<linearGradient id="paint0_linear_3373_1156" x1="119.676" y1="24.135" x2="115.151" y2="68.7414" gradientUnits="userSpaceOnUse">
<stop offset="0.0208333" stop-color="white"/>
<stop offset="1" stop-color="white" stop-opacity="0"/>
</linearGradient>
<linearGradient id="paint1_linear_3373_1156" x1="18.2712" y1="32.4705" x2="60.9206" y2="117.583" gradientUnits="userSpaceOnUse">
<stop stop-color="#618967"/>
<stop offset="1" stop-color="#72A479"/>
</linearGradient>
</defs>
</svg>
