<svg width="32" height="32" viewBox="0 0 32 32" fill="none" xmlns="http://www.w3.org/2000/svg">
<circle cx="16" cy="16" r="16" fill="url(#paint0_linear_3367_1200)"/>
<path fill-rule="evenodd" clip-rule="evenodd" d="M9.99332 12.249C10.2042 11.8992 11.3668 10.6292 12.1953 10.6675C12.4432 10.6887 12.6623 10.838 12.8403 11.0119H12.841C13.249 11.4117 14.4199 12.9206 14.4856 13.2383C14.6479 14.0174 13.7187 14.4665 14.0029 15.2518C14.7273 17.0243 15.9755 18.2724 17.7489 18.996C18.5335 19.2808 18.9827 18.3525 19.7619 18.514C20.0796 18.5804 21.5893 19.7505 21.9885 20.1592V20.1592C22.1617 20.3365 22.3123 20.5563 22.3329 20.8041C22.3637 21.677 21.0148 22.8553 20.7519 23.0059C20.1316 23.4502 19.3223 23.442 18.3356 22.9833C15.5825 21.8379 11.1826 17.5213 10.0159 14.6644C9.56949 13.6833 9.53937 12.8686 9.99332 12.249Z" stroke="white" stroke-linecap="round" stroke-linejoin="round"/>
<path d="M17.7103 10.8333C20.1783 11.1073 22.127 13.054 22.4043 15.5213" stroke="white" stroke-linecap="round" stroke-linejoin="round"/>
<path d="M17.7103 13.1953C18.8903 13.4253 19.8123 14.3473 20.0423 15.5273" stroke="white" stroke-linecap="round" stroke-linejoin="round"/>
<defs>
<linearGradient id="paint0_linear_3367_1200" x1="1.54839" y1="1.81818" x2="35.8145" y2="17.7432" gradientUnits="userSpaceOnUse">
<stop stop-color="#618967"/>
<stop offset="1" stop-color="#72A479"/>
</linearGradient>
</defs>
</svg>
